<?xml version="1.0" standalone="no"?>
<!DOCTYPE svg PUBLIC "-//W3C//DTD SVG 20010904//EN"
 "http://www.w3.org/TR/2001/REC-SVG-20010904/DTD/svg10.dtd">
<svg version="1.0" xmlns="http://www.w3.org/2000/svg"
 width="113.000000pt" height="113.000000pt" viewBox="0 0 113.000000 113.000000"
 preserveAspectRatio="xMidYMid meet">
<metadata>
Created by potrace 1.14, written by Peter Selinger 2001-2017
</metadata>
<g transform="translate(0.000000,113.000000) scale(0.100000,-0.100000)"
fill="#000000" stroke="none">
<path d="M143 1106 c-58 -19 -100 -51 -123 -96 -19 -37 -20 -60 -20 -440 0
-440 1 -447 60 -500 59 -53 68 -54 588 -57 l482 -4 -5 33 c-10 56 -15 67 -48
90 -31 22 -35 22 -402 23 -203 1 -380 4 -392 8 -11 4 -24 19 -27 32 -3 13 -6
189 -5 390 1 362 2 366 23 377 15 9 127 12 391 13 319 1 374 3 400 17 35 19
55 50 58 93 l2 30 -470 2 c-363 1 -479 -1 -512 -11z"/>
<path d="M685 758 c-158 -15 -251 -68 -275 -157 -29 -109 51 -192 211 -221
170 -31 370 1 439 70 27 27 25 36 -7 34 -14 0 -44 3 -65 6 -34 7 -44 4 -70
-18 -56 -48 -176 -61 -274 -32 -49 15 -94 53 -94 80 0 17 12 18 223 19 342 0
307 -3 307 29 0 47 -41 115 -85 139 -77 44 -189 62 -310 51z m186 -76 c28 -11
69 -57 69 -77 0 -9 -48 -12 -195 -12 -205 0 -210 1 -179 45 43 61 202 84 305
44z"/>
</g>
</svg>
